<?xml version="1.0" encoding="iso-8859-1"?>
<!-- Generator: Adobe Illustrator 19.0.0, SVG Export Plug-In . SVG Version: 6.00 Build 0)  -->
<svg version="1.1" id="Layer_1" xmlns="http://www.w3.org/2000/svg" xmlns:xlink="http://www.w3.org/1999/xlink" x="0px" y="0px"
	 viewBox="0 0 512.001 512.001" style="enable-background:new 0 0 512.001 512.001;" xml:space="preserve">
<path style="fill:#FFC61B;" d="M357.781,140.7c-9.061,0-16.407-7.345-16.407-16.407v-91.04c0-9.061,7.345-16.407,16.407-16.407
	s16.407,7.345,16.407,16.407v91.04C374.187,133.355,366.842,140.7,357.781,140.7z"/>
<path style="fill:#FEE187;" d="M256.002,323.673l106.075-109.017h117.45c14.272,0,21.448,17.23,11.394,27.36l-234.92,236.731
	L21.08,242.016c-10.052-10.131-2.878-27.36,11.394-27.36h117.45L256.002,323.673z"/>
<g>
	<path style="fill:#FFC61B;" d="M509.491,218.229c-5.055-12.136-16.817-19.98-29.965-19.98h-117.45c-4.43,0-8.669,1.79-11.759,4.965
		L256,300.146l-85.372-87.739V33.253c0-9.061-7.345-16.407-16.407-16.407s-16.407,7.345-16.407,16.407v164.997H32.475
		c-13.148,0-24.91,7.842-29.965,19.98c-5.055,12.138-2.338,26.011,6.924,35.345l234.922,236.731c3.08,3.104,7.273,4.85,11.645,4.85
		s8.566-1.746,11.645-4.85l234.922-236.731C511.829,244.24,514.547,230.367,509.491,218.229z M256.002,455.454L33.33,231.063
		h109.668l101.245,104.051c3.088,3.175,7.329,4.965,11.759,4.965s8.671-1.79,11.759-4.965l101.244-104.051l109.67,0.003
		L256.002,455.454z"/>
	<path style="fill:#FFC61B;" d="M256.002,241.51c-9.061,0-16.407-7.345-16.407-16.407V68.822c0-9.061,7.345-16.407,16.407-16.407
		s16.407,7.345,16.407,16.407v156.281C272.409,234.165,265.063,241.51,256.002,241.51z"/>
</g>
<g>
</g>
<g>
</g>
<g>
</g>
<g>
</g>
<g>
</g>
<g>
</g>
<g>
</g>
<g>
</g>
<g>
</g>
<g>
</g>
<g>
</g>
<g>
</g>
<g>
</g>
<g>
</g>
<g>
</g>
</svg>
