<?xml version="1.0" ?><svg id="svg8" version="1.1" viewBox="0 0 8.4666665 8.4666669" xmlns="http://www.w3.org/2000/svg" xmlns:cc="http://creativecommons.org/ns#" xmlns:dc="http://purl.org/dc/elements/1.1/" xmlns:inkscape="http://www.inkscape.org/namespaces/inkscape" xmlns:rdf="http://www.w3.org/1999/02/22-rdf-syntax-ns#" xmlns:sodipodi="http://sodipodi.sourceforge.net/DTD/sodipodi-0.dtd" xmlns:svg="http://www.w3.org/2000/svg"><defs id="defs2"/><g id="layer1" transform="translate(0,-288.53332)"><path d="m 14,1 c -0.43057,-2.2524e-4 -0.812955,0.2751544 -0.949219,0.6835938 l -1.015625,3.046875 c -0.410051,0.1443778 -0.81115,0.3099019 -1.203125,0.4980468 L 7.9589844,3.7929688 c -0.385025,-0.192405 -0.8499682,-0.1168812 -1.1542969,0.1875 l -2.828125,2.828125 c -0.3043812,0.3043287 -0.379905,0.7692719 -0.1875,1.1542968 l 1.4335937,2.8671874 c -0.1885794,0.39394 -0.3554568,0.796828 -0.5,1.208984 l -3.0429687,1.015626 c -0.4084391,0.136264 -0.68381856,0.518648 -0.68359375,0.949218 v 4 c -2.2524e-4,0.43057 0.27515435,0.812955 0.68359375,0.949219 l 3.0527344,1.017578 c 0.1438828,0.407584 0.3090971,0.805606 0.4960937,1.195313 l -1.4394531,2.878906 c -0.1924051,0.385025 -0.1168813,0.849968 0.1875,1.154297 l 2.828125,2.830078 c 0.3043287,0.304381 0.7692719,0.379905 1.1542969,0.1875 l 2.8730466,-1.4375 c 0.391573,0.187086 0.791637,0.352283 1.201172,0.496094 l 1.017578,3.050781 C 13.187045,30.734612 13.56943,31.009991 14,31.009766 h 4 c 0.43057,2.25e-4 0.812955,-0.275154 0.949219,-0.683594 l 1.017578,-3.056641 c 0.406496,-0.143244 0.804637,-0.308036 1.193359,-0.49414 l 2.88086,1.441406 c 0.385025,0.192405 0.849967,0.116881 1.154296,-0.1875 l 2.828126,-2.830078 c 0.304381,-0.304329 0.379905,-0.769272 0.1875,-1.154297 l -1.435547,-2.871094 c 0.188179,-0.392579 0.353616,-0.794395 0.498047,-1.205078 l 3.046874,-1.015625 c 0.40844,-0.136264 0.683819,-0.518649 0.683594,-0.949219 v -4 c 2.25e-4,-0.43057 -0.275155,-0.812954 -0.683594,-0.949218 L 27.271484,12.039062 C 27.127133,11.629665 26.96127,11.229223 26.773438,10.837891 l 1.4375,-2.8750004 c 0.192405,-0.3850249 0.116881,-0.8499681 -0.1875,-1.1542968 L 25.195312,3.9804688 C 24.890983,3.676088 24.426041,3.6005642 24.041016,3.7929688 l -2.865235,1.4316406 c -0.395249,-0.1889764 -0.799375,-0.3552819 -1.21289,-0.5 L 18.949219,1.6835938 C 18.812955,1.2751544 18.43057,0.99977476 18,1 Z m 1.996094,7.9980469 c 3.854148,0 7.005859,3.1516861 7.005859,7.0058591 0,3.854136 -3.151711,6.998047 -7.005859,6.998047 -3.854149,0 -6.9980471,-3.143911 -6.9980471,-6.998047 0,-3.854173 3.1438981,-7.0058591 6.9980471,-7.0058591 z" id="path940" style="color:#000000;font-style:normal;font-variant:normal;font-weight:normal;font-stretch:normal;font-size:medium;line-height:normal;font-family:sans-serif;font-variant-ligatures:normal;font-variant-position:normal;font-variant-caps:normal;font-variant-numeric:normal;font-variant-alternates:normal;font-feature-settings:normal;text-indent:0;text-align:start;text-decoration:none;text-decoration-line:none;text-decoration-style:solid;text-decoration-color:#000000;letter-spacing:normal;word-spacing:normal;text-transform:none;writing-mode:lr-tb;direction:ltr;text-orientation:mixed;dominant-baseline:auto;baseline-shift:baseline;text-anchor:start;white-space:normal;shape-padding:0;clip-rule:nonzero;display:inline;overflow:visible;visibility:visible;opacity:1;isolation:auto;mix-blend-mode:normal;color-interpolation:sRGB;color-interpolation-filters:linearRGB;solid-color:#000000;solid-opacity:1;vector-effect:none;fill:#000000;fill-opacity:1;fill-rule:nonzero;stroke:none;stroke-width:1.99999988;stroke-linecap:round;stroke-linejoin:round;stroke-miterlimit:4;stroke-dasharray:none;stroke-dashoffset:0;stroke-opacity:1;paint-order:stroke fill markers;color-rendering:auto;image-rendering:auto;shape-rendering:auto;text-rendering:auto;enable-background:accumulate" transform="matrix(0.26458333,0,0,0.26458333,0,288.53332)"/></g></svg>